<svg xmlns="http://www.w3.org/2000/svg" viewBox="0 0 512 512" width="512" height="512"><defs><clipPath id="c"><rect width="512" height="512" rx="112"/></clipPath></defs><g clip-path="url(#c)"><rect width="512" height="512" fill="#0d0d0d"/><circle cx="256" cy="256" r="44" fill="none" stroke="#1c1c1c" stroke-width="12" opacity="1"/><circle cx="256" cy="256" r="88" fill="none" stroke="#1c1c1c" stroke-width="12" opacity="1"/><circle cx="256" cy="256" r="132" fill="none" stroke="#1c1c1c" stroke-width="12" opacity="1"/><circle cx="256" cy="256" r="176" fill="none" stroke="#1c1c1c" stroke-width="12" opacity="1"/><circle cx="256" cy="256" r="220" fill="none" stroke="#1c1c1c" stroke-width="12" opacity="1"/><circle cx="256" cy="256" r="264" fill="none" stroke="#1c1c1c" stroke-width="12" opacity="1"/><circle cx="256" cy="256" r="308" fill="none" stroke="#1c1c1c" stroke-width="12" opacity="1"/><circle cx="256" cy="256" r="352" fill="none" stroke="#1c1c1c" stroke-width="12" opacity="1"/><circle cx="256" cy="256" r="396" fill="none" stroke="#1c1c1c" stroke-width="12" opacity="1"/><circle cx="256" cy="256" r="230" fill="none" stroke="#2a2a2a" stroke-width="0"/><path d="M60 270A196 66 0 0 1 452 270" transform="rotate(-14 256 270)" fill="none" stroke="#f2cc85" stroke-width="20" stroke-linecap="round"/>
<g transform="rotate(20 256 256)"><rect x="180" y="92" width="152" height="328" rx="38" fill="#151515" stroke="#a3bc69" stroke-width="22"/><path d="M230 134h52" stroke="#a3bc69" stroke-width="14" stroke-linecap="round"/></g>
<path d="M452 270A196 66 0 0 1 60 270" transform="rotate(-14 256 270)" fill="none" stroke="#f2cc85" stroke-width="20" stroke-linecap="round"/>
<path d="M256 20l38 54h-76z M256 492l-38-54h76z" fill="#f2cc85"/></g></svg>